<?xml version="1.0" encoding="utf-8"?>
<!-- Generator: Adobe Illustrator 18.1.1, SVG Export Plug-In . SVG Version: 6.00 Build 0)  -->
<svg version="1.1" id="svg2" xmlns:svg="http://www.w3.org/2000/svg"
	 xmlns="http://www.w3.org/2000/svg" xmlns:xlink="http://www.w3.org/1999/xlink" x="0px" y="0px" viewBox="300 -316 800 832"
	 enable-background="new 300 -316 800 832" xml:space="preserve">
<title>Kirikane Pattern 12</title>
<g>
	<line fill="none" x1="380" y1="-177.4" x2="380" y2="-177.4"/>
	<line fill="none" x1="380" y1="-177.4" x2="380" y2="-177.4"/>
	<line fill="none" x1="300" y1="-223.6" x2="380" y2="-177.4"/>
	<line fill="none" x1="380" y1="-269.8" x2="300" y2="-316"/>
	<line fill="none" x1="1020" y1="-177.4" x2="1020" y2="-177.4"/>
	<line fill="none" x1="1020" y1="-177.4" x2="1020" y2="-177.4"/>
	<line fill="none" x1="1020" y1="-269.8" x2="1100" y2="-316"/>
	<line fill="none" x1="1020" y1="-177.4" x2="1100" y2="-223.6"/>
	<line fill="none" x1="380" y1="-177.4" x2="380" y2="-177.4"/>
	<line fill="none" x1="300" y1="-38.9" x2="380" y2="-85.1"/>
	<line fill="none" x1="300" y1="-131.2" x2="380" y2="-177.4"/>
	<line fill="none" x1="1100" y1="-38.9" x2="1020" y2="-85.1"/>
	<line fill="none" x1="1020" y1="-177.4" x2="1100" y2="-131.2"/>
	<line fill="none" x1="1020" y1="-177.4" x2="1020" y2="-177.4"/>
	<line fill="none" x1="540" y1="-177.4" x2="540" y2="-177.4"/>
	<line fill="none" x1="540" y1="-177.4" x2="540" y2="-177.4"/>
	<line fill="none" x1="540" y1="-177.4" x2="540" y2="-177.4"/>
	<line fill="none" x1="460" y1="-316" x2="540" y2="-269.8"/>
	<line fill="none" x1="540" y1="-177.4" x2="460" y2="-223.6"/>
	<line fill="none" x1="380" y1="-177.4" x2="460" y2="-223.6"/>
	<line fill="none" x1="380" y1="-269.8" x2="460" y2="-316"/>
	<line fill="none" x1="380" y1="-177.4" x2="380" y2="-177.4"/>
	<line fill="none" x1="380" y1="-269.8" x2="380" y2="-177.4"/>
	<line fill="none" x1="460" y1="-316" x2="460" y2="-223.6"/>
	<line fill="none" x1="380" y1="-177.4" x2="380" y2="-177.4"/>
	<line fill="none" x1="380" y1="-85.1" x2="460" y2="-38.9"/>
	<line fill="none" x1="380" y1="-177.4" x2="460" y2="-131.2"/>
	<line fill="none" x1="460" y1="-38.9" x2="460" y2="-38.9"/>
	<line fill="none" x1="380" y1="-177.4" x2="380" y2="-177.4"/>
	<line fill="none" x1="380" y1="-177.4" x2="380" y2="-177.4"/>
	<line fill="none" x1="380" y1="-177.4" x2="380" y2="-177.4"/>
	<line fill="none" x1="380" y1="-85.1" x2="380" y2="-177.4"/>
	<line fill="none" x1="540" y1="-177.4" x2="540" y2="-177.4"/>
	<line fill="none" x1="540" y1="-177.4" x2="460" y2="-131.2"/>
	<line fill="none" x1="540" y1="-177.4" x2="540" y2="-177.4"/>
	<line fill="none" x1="460" y1="-38.9" x2="460" y2="-38.9"/>
	<line fill="none" x1="460" y1="-38.9" x2="540" y2="-85.1"/>
	<line fill="none" x1="460" y1="-131.2" x2="460" y2="-38.9"/>
	<line fill="none" x1="700" y1="376.8" x2="700" y2="376.8"/>
	<line fill="none" x1="460" y1="-38.9" x2="460" y2="-38.9"/>
	<line fill="none" x1="700" y1="376.8" x2="620" y2="238.3"/>
	<line fill="none" x1="540" y1="99.7" x2="460" y2="-38.9"/>
	<line fill="none" x1="380" y1="-177.4" x2="380" y2="-177.4"/>
	<line fill="none" x1="620" y1="238.3" x2="620" y2="238.3"/>
	<line fill="none" x1="700" y1="376.8" x2="700" y2="376.8"/>
	<line fill="none" x1="620" y1="238.3" x2="620" y2="238.3"/>
	<line fill="none" x1="540" y1="99.7" x2="620" y2="238.3"/>
	<line fill="none" x1="620" y1="238.3" x2="620" y2="238.3"/>
	<line fill="none" x1="460" y1="-38.9" x2="460" y2="-38.9"/>
	<line fill="none" x1="460" y1="-38.9" x2="380" y2="-177.4"/>
	<line fill="none" x1="780" y1="515.4" x2="700" y2="376.8"/>
	<line fill="none" x1="300" y1="-316" x2="380" y2="-177.4"/>
	<line fill="none" x1="460" y1="-38.9" x2="460" y2="-38.9"/>
	<line fill="none" x1="380" y1="-177.4" x2="380" y2="-177.4"/>
	<line fill="none" x1="460" y1="-38.9" x2="460" y2="-38.9"/>
	<line fill="none" x1="460" y1="-316" x2="380" y2="-177.4"/>
	<line fill="none" x1="620" y1="-38.9" x2="620" y2="-38.9"/>
	<line fill="none" x1="540" y1="-177.4" x2="540" y2="-177.4"/>
	<line fill="none" x1="460" y1="-316" x2="540" y2="-177.4"/>
	<line fill="none" x1="700" y1="99.7" x2="620" y2="-38.9"/>
	<line fill="none" x1="380" y1="-177.4" x2="380" y2="-177.4"/>
	<line fill="none" x1="780" y1="238.3" x2="780" y2="238.3"/>
	<line fill="none" x1="540" y1="-177.4" x2="540" y2="-177.4"/>
	<line fill="none" x1="540" y1="-177.4" x2="540" y2="-177.4"/>
	<line fill="none" x1="620" y1="-38.9" x2="620" y2="-38.9"/>
	<line fill="none" x1="540" y1="376.8" x2="540" y2="376.8"/>
	<line fill="none" x1="380" y1="-177.4" x2="380" y2="-177.4"/>
	<line fill="none" x1="780" y1="238.3" x2="780" y2="238.3"/>
	<line fill="none" x1="540" y1="376.8" x2="460" y2="238.3"/>
	<line fill="none" x1="940" y1="515.4" x2="860" y2="376.8"/>
	<line fill="none" x1="540" y1="376.8" x2="540" y2="376.8"/>
	<line fill="none" x1="540" y1="376.8" x2="540" y2="376.8"/>
	<line fill="none" x1="380" y1="-177.4" x2="300" y2="-38.9"/>
	<line fill="none" x1="380" y1="-177.4" x2="380" y2="-177.4"/>
	<line fill="none" x1="380" y1="-177.4" x2="380" y2="-177.4"/>
	<line fill="none" x1="460" y1="238.3" x2="460" y2="238.3"/>
	<line fill="none" x1="460" y1="238.3" x2="380" y2="99.7"/>
	<line fill="none" x1="380" y1="-177.4" x2="380" y2="-177.4"/>
	<line fill="none" x1="460" y1="238.3" x2="460" y2="238.3"/>
	<line fill="none" x1="380" y1="-177.4" x2="380" y2="-177.4"/>
	<line fill="none" x1="620" y1="515.4" x2="540" y2="376.8"/>
	<line fill="none" x1="380" y1="99.7" x2="380" y2="99.7"/>
	<line fill="none" x1="860" y1="376.8" x2="860" y2="376.8"/>
	<line fill="none" x1="860" y1="376.8" x2="860" y2="376.8"/>
	<line fill="none" x1="700" y1="99.7" x2="780" y2="238.3"/>
	<line fill="none" x1="460" y1="238.3" x2="460" y2="238.3"/>
	<line fill="none" x1="300" y1="-38.9" x2="380" y2="99.7"/>
	<line fill="none" x1="380" y1="99.7" x2="380" y2="99.7"/>
	<line fill="none" x1="860" y1="376.8" x2="780" y2="238.3"/>
	<line fill="none" x1="860" y1="376.8" x2="860" y2="376.8"/>
	<line fill="none" x1="380" y1="99.7" x2="380" y2="99.7"/>
	<line fill="none" x1="540" y1="-177.4" x2="620" y2="-38.9"/>
	<line fill="none" x1="460" y1="238.3" x2="460" y2="238.3"/>
	<line fill="none" x1="620" y1="-38.9" x2="620" y2="-38.9"/>
	<line fill="none" x1="780" y1="238.3" x2="780" y2="238.3"/>
	<line fill="none" x1="940" y1="238.3" x2="940" y2="238.3"/>
	<line fill="none" x1="860" y1="99.7" x2="940" y2="238.3"/>
	<line fill="none" x1="540" y1="-177.4" x2="540" y2="-177.4"/>
	<line fill="none" x1="380" y1="99.7" x2="380" y2="99.7"/>
	<line fill="none" x1="1020" y1="376.8" x2="1020" y2="376.8"/>
	<line fill="none" x1="1020" y1="376.8" x2="1020" y2="376.8"/>
	<line fill="none" x1="380" y1="376.8" x2="380" y2="376.8"/>
	<line fill="none" x1="540" y1="-177.4" x2="540" y2="-177.4"/>
	<line fill="none" x1="700" y1="-177.4" x2="700" y2="-177.4"/>
	<line fill="none" x1="1020" y1="376.8" x2="1020" y2="376.8"/>
	<line fill="none" x1="700" y1="-177.4" x2="700" y2="-177.4"/>
	<line fill="none" x1="380" y1="376.8" x2="380" y2="376.8"/>
	<line fill="none" x1="1020" y1="376.8" x2="1020" y2="376.8"/>
	<line fill="none" x1="540" y1="-177.4" x2="460" y2="-38.9"/>
	<line fill="none" x1="460" y1="-38.9" x2="460" y2="-38.9"/>
	<line fill="none" x1="620" y1="-316" x2="540" y2="-177.4"/>
	<line fill="none" x1="300" y1="238.3" x2="380" y2="376.8"/>
	<line fill="none" x1="940" y1="238.3" x2="1020" y2="376.8"/>
	<line fill="none" x1="1020" y1="376.8" x2="1020" y2="376.8"/>
	<line fill="none" x1="540" y1="-177.4" x2="540" y2="-177.4"/>
	<line fill="none" x1="620" y1="-316" x2="700" y2="-177.4"/>
	<line fill="none" x1="540" y1="-177.4" x2="540" y2="-177.4"/>
	<line fill="none" x1="860" y1="99.7" x2="780" y2="-38.9"/>
	<line fill="none" x1="540" y1="-177.4" x2="540" y2="-177.4"/>
	<line fill="none" x1="380" y1="99.7" x2="380" y2="99.7"/>
	<line fill="none" x1="700" y1="-177.4" x2="780" y2="-38.9"/>
	<line fill="none" x1="380" y1="99.7" x2="380" y2="99.7"/>
	<line fill="none" x1="780" y1="-38.9" x2="780" y2="-38.9"/>
	<line fill="none" x1="380" y1="99.7" x2="300" y2="238.3"/>
	<line fill="none" x1="460" y1="515.4" x2="380" y2="376.8"/>
	<line fill="none" x1="460" y1="-38.9" x2="460" y2="-38.9"/>
	<line fill="none" x1="940" y1="238.3" x2="940" y2="238.3"/>
	<line fill="none" x1="780" y1="-38.9" x2="780" y2="-38.9"/>
	<line fill="none" x1="780" y1="-38.9" x2="780" y2="-38.9"/>
	<line fill="none" x1="380" y1="99.7" x2="460" y2="-38.9"/>
	<line fill="none" x1="940" y1="238.3" x2="940" y2="238.3"/>
	<line fill="none" x1="460" y1="-38.9" x2="460" y2="-38.9"/>
	<line fill="none" x1="460" y1="-38.9" x2="460" y2="-38.9"/>
	<line fill="none" x1="940" y1="238.3" x2="940" y2="238.3"/>
	<line fill="none" x1="1100" y1="515.4" x2="1020" y2="376.8"/>
	<line fill="none" x1="460" y1="238.3" x2="380" y2="376.8"/>
	<line fill="none" x1="460" y1="238.3" x2="460" y2="238.3"/>
	<line fill="none" x1="860" y1="-177.4" x2="860" y2="-177.4"/>
	<line fill="none" x1="460" y1="238.3" x2="460" y2="238.3"/>
	<line fill="none" x1="380" y1="376.8" x2="380" y2="376.8"/>
	<line fill="none" x1="700" y1="-177.4" x2="700" y2="-177.4"/>
	<line fill="none" x1="940" y1="-38.9" x2="860" y2="-177.4"/>
	<line fill="none" x1="860" y1="-177.4" x2="860" y2="-177.4"/>
	<line fill="none" x1="460" y1="238.3" x2="540" y2="99.7"/>
	<line fill="none" x1="380" y1="376.8" x2="380" y2="376.8"/>
	<line fill="none" x1="380" y1="376.8" x2="380" y2="376.8"/>
	<line fill="none" x1="380" y1="376.8" x2="380" y2="376.8"/>
	<line fill="none" x1="380" y1="376.8" x2="380" y2="376.8"/>
	<line fill="none" x1="380" y1="376.8" x2="380" y2="376.8"/>
	<line fill="none" x1="940" y1="-38.9" x2="940" y2="-38.9"/>
	<line fill="none" x1="700" y1="-177.4" x2="620" y2="-38.9"/>
	<line fill="none" x1="940" y1="-38.9" x2="1020" y2="99.7"/>
	<line fill="none" x1="540" y1="99.7" x2="620" y2="-38.9"/>
	<line fill="none" x1="1020" y1="376.8" x2="1100" y2="238.3"/>
	<line fill="none" x1="620" y1="-38.9" x2="620" y2="-38.9"/>
	<line fill="none" x1="460" y1="238.3" x2="460" y2="238.3"/>
	<line fill="none" x1="940" y1="-38.9" x2="940" y2="-38.9"/>
	<line fill="none" x1="940" y1="-38.9" x2="940" y2="-38.9"/>
	<line fill="none" x1="620" y1="-38.9" x2="620" y2="-38.9"/>
	<line fill="none" x1="1020" y1="376.8" x2="1020" y2="376.8"/>
	<line fill="none" x1="1020" y1="99.7" x2="1020" y2="99.7"/>
	<line fill="none" x1="1020" y1="99.7" x2="1020" y2="99.7"/>
	<line fill="none" x1="300" y1="515.4" x2="380" y2="376.8"/>
	<line fill="none" x1="940" y1="515.4" x2="1020" y2="376.8"/>
	<line fill="none" x1="940" y1="-38.9" x2="940" y2="-38.9"/>
	<line fill="none" x1="1020" y1="376.8" x2="1020" y2="376.8"/>
	<line fill="none" x1="860" y1="-177.4" x2="860" y2="-177.4"/>
	<line fill="none" x1="780" y1="-316" x2="700" y2="-177.4"/>
	<line fill="none" x1="620" y1="-38.9" x2="620" y2="-38.9"/>
	<line fill="none" x1="700" y1="-177.4" x2="700" y2="-177.4"/>
	<line fill="none" x1="700" y1="-177.4" x2="700" y2="-177.4"/>
	<line fill="none" x1="700" y1="-177.4" x2="700" y2="-177.4"/>
	<line fill="none" x1="1020" y1="376.8" x2="1020" y2="376.8"/>
	<line fill="none" x1="1100" y1="238.3" x2="1020" y2="99.7"/>
	<line fill="none" x1="460" y1="238.3" x2="460" y2="238.3"/>
	<line fill="none" x1="1020" y1="99.7" x2="1020" y2="99.7"/>
	<line fill="none" x1="780" y1="-316" x2="860" y2="-177.4"/>
	<line fill="none" x1="1100" y1="-38.9" x2="1020" y2="-177.4"/>
	<line fill="none" x1="540" y1="376.8" x2="540" y2="376.8"/>
	<line fill="none" x1="540" y1="376.8" x2="540" y2="376.8"/>
	<line fill="none" x1="860" y1="-177.4" x2="860" y2="-177.4"/>
	<line fill="none" x1="620" y1="238.3" x2="620" y2="238.3"/>
	<line fill="none" x1="780" y1="-38.9" x2="780" y2="-38.9"/>
	<line fill="none" x1="780" y1="-38.9" x2="780" y2="-38.9"/>
	<line fill="none" x1="860" y1="-177.4" x2="780" y2="-38.9"/>
	<line fill="none" x1="540" y1="376.8" x2="540" y2="376.8"/>
	<line fill="none" x1="860" y1="-177.4" x2="860" y2="-177.4"/>
	<line fill="none" x1="860" y1="-177.4" x2="860" y2="-177.4"/>
	<line fill="none" x1="940" y1="-316" x2="860" y2="-177.4"/>
	<line fill="none" x1="540" y1="376.8" x2="620" y2="238.3"/>
	<line fill="none" x1="780" y1="-38.9" x2="780" y2="-38.9"/>
	<line fill="none" x1="860" y1="-177.4" x2="860" y2="-177.4"/>
	<line fill="none" x1="540" y1="376.8" x2="540" y2="376.8"/>
	<line fill="none" x1="780" y1="-38.9" x2="700" y2="99.7"/>
	<line fill="none" x1="860" y1="-177.4" x2="860" y2="-177.4"/>
	<line fill="none" x1="620" y1="238.3" x2="620" y2="238.3"/>
	<line fill="none" x1="620" y1="238.3" x2="620" y2="238.3"/>
	<line fill="none" x1="700" y1="99.7" x2="620" y2="238.3"/>
	<line fill="none" x1="460" y1="515.4" x2="540" y2="376.8"/>
	<line fill="none" x1="1020" y1="-177.4" x2="1020" y2="-177.4"/>
	<line fill="none" x1="1020" y1="-177.4" x2="1020" y2="-177.4"/>
	<line fill="none" x1="1020" y1="-177.4" x2="1020" y2="-177.4"/>
	<line fill="none" x1="540" y1="376.8" x2="540" y2="376.8"/>
	<line fill="none" x1="940" y1="-316" x2="1020" y2="-177.4"/>
	<line fill="none" x1="1020" y1="-177.4" x2="1020" y2="-177.4"/>
	<line fill="none" x1="1020" y1="-177.4" x2="1020" y2="-177.4"/>
	<line fill="none" x1="700" y1="376.8" x2="700" y2="376.8"/>
	<line fill="none" x1="940" y1="-38.9" x2="860" y2="99.7"/>
	<line fill="none" x1="940" y1="-38.9" x2="940" y2="-38.9"/>
	<line fill="none" x1="780" y1="238.3" x2="780" y2="238.3"/>
	<line fill="none" x1="780" y1="238.3" x2="780" y2="238.3"/>
	<line fill="none" x1="700" y1="376.8" x2="700" y2="376.8"/>
	<line fill="none" x1="700" y1="376.8" x2="700" y2="376.8"/>
	<line fill="none" x1="780" y1="238.3" x2="780" y2="238.3"/>
	<line fill="none" x1="700" y1="376.8" x2="780" y2="238.3"/>
	<line fill="none" x1="1100" y1="-316" x2="1020" y2="-177.4"/>
	<line fill="none" x1="700" y1="376.8" x2="700" y2="376.8"/>
	<line fill="none" x1="620" y1="515.4" x2="700" y2="376.8"/>
	<line fill="none" x1="940" y1="-38.9" x2="940" y2="-38.9"/>
	<line fill="none" x1="1020" y1="-177.4" x2="1020" y2="-177.4"/>
	<line fill="none" x1="940" y1="-38.9" x2="940" y2="-38.9"/>
	<line fill="none" x1="1020" y1="-177.4" x2="1020" y2="-177.4"/>
	<line fill="none" x1="940" y1="-38.9" x2="940" y2="-38.9"/>
	<line fill="none" x1="860" y1="99.7" x2="780" y2="238.3"/>
	<line fill="none" x1="940" y1="-38.9" x2="1020" y2="-177.4"/>
	<line fill="none" x1="1020" y1="-177.4" x2="1020" y2="-177.4"/>
	<line fill="none" x1="860" y1="376.8" x2="860" y2="376.8"/>
	<line fill="none" x1="860" y1="376.8" x2="860" y2="376.8"/>
	<line fill="none" x1="1020" y1="99.7" x2="1020" y2="99.7"/>
	<line fill="none" x1="940" y1="238.3" x2="940" y2="238.3"/>
	<line fill="none" x1="1020" y1="99.7" x2="940" y2="238.3"/>
	<line fill="none" x1="940" y1="238.3" x2="940" y2="238.3"/>
	<line fill="none" x1="860" y1="376.8" x2="940" y2="238.3"/>
	<line fill="none" x1="940" y1="238.3" x2="940" y2="238.3"/>
	<line fill="none" x1="780" y1="515.4" x2="860" y2="376.8"/>
	<line fill="none" x1="860" y1="376.8" x2="860" y2="376.8"/>
	<line fill="none" x1="940" y1="238.3" x2="940" y2="238.3"/>
	<line fill="none" x1="860" y1="376.8" x2="860" y2="376.8"/>
	<line fill="none" x1="1020" y1="99.7" x2="1020" y2="99.7"/>
	<line fill="none" x1="1020" y1="99.7" x2="1020" y2="99.7"/>
	<line fill="none" x1="1020" y1="99.7" x2="1100" y2="-38.9"/>
	<line fill="none" x1="860" y1="376.8" x2="860" y2="376.8"/>
	<line fill="none" x1="860" y1="-177.4" x2="860" y2="-177.4"/>
	<line fill="none" x1="780" y1="-38.9" x2="940" y2="-38.9"/>
	<line fill="none" x1="860" y1="-177.4" x2="1020" y2="-177.4"/>
	<line fill="none" x1="940" y1="-38.9" x2="940" y2="-38.9"/>
	<line fill="none" x1="860" y1="-177.4" x2="860" y2="-177.4"/>
	<line fill="none" x1="620" y1="238.3" x2="460" y2="238.3"/>
	<line fill="none" x1="380" y1="376.8" x2="380" y2="376.8"/>
	<line fill="none" x1="1020" y1="99.7" x2="1020" y2="99.7"/>
	<line fill="none" x1="700" y1="-177.4" x2="700" y2="-177.4"/>
	<line fill="none" x1="940" y1="238.3" x2="940" y2="238.3"/>
	<line fill="none" x1="700" y1="-177.4" x2="700" y2="-177.4"/>
	<line fill="none" x1="540" y1="-177.4" x2="540" y2="-177.4"/>
	<line fill="none" x1="460" y1="-38.9" x2="460" y2="-38.9"/>
	<line fill="none" x1="380" y1="99.7" x2="540" y2="99.7"/>
	<line fill="none" x1="780" y1="-38.9" x2="780" y2="-38.9"/>
	<line fill="none" x1="860" y1="99.7" x2="700" y2="99.7"/>
	<line fill="none" x1="620" y1="-38.9" x2="460" y2="-38.9"/>
	<line fill="none" x1="620" y1="238.3" x2="620" y2="238.3"/>
	<line fill="none" x1="700" y1="376.8" x2="700" y2="376.8"/>
	<line fill="none" x1="380" y1="99.7" x2="380" y2="99.7"/>
	<line fill="none" x1="460" y1="238.3" x2="460" y2="238.3"/>
	<line fill="none" x1="540" y1="-177.4" x2="700" y2="-177.4"/>
	<line fill="none" x1="780" y1="-38.9" x2="620" y2="-38.9"/>
	<line fill="none" x1="540" y1="376.8" x2="540" y2="376.8"/>
	<line fill="none" x1="540" y1="376.8" x2="540" y2="376.8"/>
	<line fill="none" x1="380" y1="376.8" x2="380" y2="376.8"/>
	<line fill="none" x1="860" y1="-177.4" x2="700" y2="-177.4"/>
	<line fill="none" x1="380" y1="376.8" x2="540" y2="376.8"/>
	<line fill="none" x1="1100" y1="-177.4" x2="1020" y2="-177.4"/>
	<line fill="none" x1="620" y1="-38.9" x2="620" y2="-38.9"/>
	<line fill="none" x1="1020" y1="376.8" x2="1020" y2="376.8"/>
	<line fill="none" x1="1020" y1="-177.4" x2="1020" y2="-177.4"/>
	<line fill="none" x1="700" y1="-177.4" x2="700" y2="-177.4"/>
	<line fill="none" x1="1020" y1="376.8" x2="1020" y2="376.8"/>
	<line fill="none" x1="460" y1="238.3" x2="460" y2="238.3"/>
	<line fill="none" x1="300" y1="238.3" x2="460" y2="238.3"/>
	<line fill="none" x1="380" y1="376.8" x2="380" y2="376.8"/>
	<line fill="none" x1="860" y1="376.8" x2="860" y2="376.8"/>
	<line fill="none" x1="1020" y1="99.7" x2="1100" y2="99.7"/>
	<line fill="none" x1="940" y1="238.3" x2="940" y2="238.3"/>
	<line fill="none" x1="620" y1="238.3" x2="620" y2="238.3"/>
	<line fill="none" x1="780" y1="238.3" x2="780" y2="238.3"/>
	<line fill="none" x1="1100" y1="238.3" x2="940" y2="238.3"/>
	<line fill="none" x1="380" y1="376.8" x2="300" y2="376.8"/>
	<line fill="none" x1="1020" y1="-177.4" x2="1020" y2="-177.4"/>
	<line fill="none" x1="860" y1="376.8" x2="860" y2="376.8"/>
	<line fill="none" x1="860" y1="376.8" x2="860" y2="376.8"/>
	<line fill="none" x1="860" y1="-177.4" x2="860" y2="-177.4"/>
	<line fill="none" x1="1020" y1="376.8" x2="1020" y2="376.8"/>
	<line fill="none" x1="860" y1="376.8" x2="1020" y2="376.8"/>
	<line fill="none" x1="380" y1="99.7" x2="300" y2="99.7"/>
	<line fill="none" x1="540" y1="-177.4" x2="540" y2="-177.4"/>
	<line fill="none" x1="1020" y1="376.8" x2="1020" y2="376.8"/>
	<line fill="none" x1="540" y1="-177.4" x2="540" y2="-177.4"/>
	<line fill="none" x1="1020" y1="376.8" x2="1100" y2="376.8"/>
	<line fill="none" x1="620" y1="238.3" x2="780" y2="238.3"/>
	<line fill="none" x1="780" y1="-38.9" x2="780" y2="-38.9"/>
	<line fill="none" x1="780" y1="238.3" x2="940" y2="238.3"/>
	<line fill="none" x1="700" y1="376.8" x2="700" y2="376.8"/>
	<line fill="none" x1="1020" y1="99.7" x2="860" y2="99.7"/>
	<line fill="none" x1="380" y1="-177.4" x2="380" y2="-177.4"/>
	<line fill="none" x1="940" y1="-38.9" x2="940" y2="-38.9"/>
	<line fill="none" x1="860" y1="376.8" x2="700" y2="376.8"/>
	<line fill="none" x1="540" y1="376.8" x2="700" y2="376.8"/>
	<line fill="none" x1="380" y1="-177.4" x2="380" y2="-177.4"/>
	<line fill="none" x1="700" y1="376.8" x2="700" y2="376.8"/>
	<line fill="none" x1="620" y1="-38.9" x2="620" y2="-38.9"/>
	<line fill="none" x1="540" y1="-177.4" x2="380" y2="-177.4"/>
	<line fill="none" x1="300" y1="-38.9" x2="460" y2="-38.9"/>
	<line fill="none" x1="540" y1="99.7" x2="700" y2="99.7"/>
	<line fill="none" x1="380" y1="-177.4" x2="300" y2="-177.4"/>
	<line fill="none" x1="780" y1="238.3" x2="780" y2="238.3"/>
	<line fill="none" x1="1100" y1="-38.9" x2="940" y2="-38.9"/>
	<line fill="none" x1="1020" y1="-177.4" x2="1020" y2="-177.4"/>
	<line fill="none" x1="540" y1="376.8" x2="540" y2="376.8"/>
	<line fill="none" x1="380" y1="-177.4" x2="380" y2="-177.4"/>
	<line fill="none" x1="460" y1="-38.9" x2="460" y2="-38.9"/>
	<line fill="none" x1="1020" y1="-177.4" x2="1020" y2="-177.4"/>
	<line fill="none" x1="700" y1="-177.4" x2="700" y2="-177.4"/>
	<line fill="none" x1="700" y1="-177.4" x2="700" y2="-177.4"/>
	<line fill="none" x1="700" y1="-177.4" x2="700" y2="-177.4"/>
	<line fill="none" x1="700" y1="-269.8" x2="620" y2="-316"/>
	<line fill="none" x1="700" y1="-177.4" x2="620" y2="-223.6"/>
	<line fill="none" x1="540" y1="-177.4" x2="620" y2="-223.6"/>
	<line fill="none" x1="540" y1="-177.4" x2="540" y2="-177.4"/>
	<line fill="none" x1="620" y1="-316" x2="540" y2="-269.8"/>
	<line fill="none" x1="540" y1="-177.4" x2="540" y2="-269.8"/>
	<line fill="none" x1="620" y1="-316" x2="620" y2="-223.6"/>
	<line fill="none" x1="860" y1="-177.4" x2="780" y2="-223.6"/>
	<line fill="none" x1="860" y1="-177.4" x2="860" y2="-177.4"/>
	<line fill="none" x1="780" y1="-316" x2="860" y2="-269.8"/>
	<line fill="none" x1="860" y1="-177.4" x2="860" y2="-177.4"/>
	<line fill="none" x1="860" y1="-177.4" x2="860" y2="-177.4"/>
	<line fill="none" x1="700" y1="-269.8" x2="780" y2="-316"/>
	<line fill="none" x1="700" y1="-177.4" x2="700" y2="-177.4"/>
	<line fill="none" x1="700" y1="-177.4" x2="780" y2="-223.6"/>
	<line fill="none" x1="700" y1="-269.8" x2="700" y2="-177.4"/>
	<line fill="none" x1="780" y1="-316" x2="780" y2="-223.6"/>
	<line fill="none" x1="1020" y1="-177.4" x2="1020" y2="-177.4"/>
	<line fill="none" x1="1020" y1="-177.4" x2="1020" y2="-177.4"/>
	<line fill="none" x1="1020" y1="-269.8" x2="940" y2="-316"/>
	<line fill="none" x1="1020" y1="-177.4" x2="940" y2="-223.6"/>
	<line fill="none" x1="1020" y1="-177.4" x2="1020" y2="-177.4"/>
	<line fill="none" x1="1020" y1="-269.8" x2="1020" y2="-177.4"/>
	<line fill="none" x1="860" y1="-177.4" x2="860" y2="-177.4"/>
	<line fill="none" x1="940" y1="-316" x2="860" y2="-269.8"/>
	<line fill="none" x1="860" y1="-177.4" x2="940" y2="-223.6"/>
	<line fill="none" x1="860" y1="-177.4" x2="860" y2="-269.8"/>
	<line fill="none" x1="940" y1="-316" x2="940" y2="-223.6"/>
	<line fill="none" x1="540" y1="7.3" x2="460" y2="-38.9"/>
	<line fill="none" x1="540" y1="99.7" x2="460" y2="53.5"/>
	<line fill="none" x1="460" y1="-38.9" x2="460" y2="-38.9"/>
	<line fill="none" x1="380" y1="7.3" x2="460" y2="-38.9"/>
	<line fill="none" x1="380" y1="99.7" x2="380" y2="99.7"/>
	<line fill="none" x1="460" y1="-38.9" x2="460" y2="-38.9"/>
	<line fill="none" x1="380" y1="99.7" x2="460" y2="53.5"/>
	<line fill="none" x1="380" y1="99.7" x2="380" y2="99.7"/>
	<line fill="none" x1="460" y1="-38.9" x2="460" y2="-38.9"/>
	<line fill="none" x1="460" y1="-38.9" x2="460" y2="-38.9"/>
	<line fill="none" x1="460" y1="53.5" x2="460" y2="-38.9"/>
	<line fill="none" x1="700" y1="7.3" x2="620" y2="-38.9"/>
	<line fill="none" x1="620" y1="-38.9" x2="620" y2="-38.9"/>
	<line fill="none" x1="700" y1="99.7" x2="620" y2="53.5"/>
	<line fill="none" x1="620" y1="-38.9" x2="620" y2="-38.9"/>
	<line fill="none" x1="540" y1="99.7" x2="620" y2="53.5"/>
	<line fill="none" x1="620" y1="-38.9" x2="540" y2="7.3"/>
	<line fill="none" x1="540" y1="99.7" x2="540" y2="7.3"/>
	<line fill="none" x1="620" y1="-38.9" x2="620" y2="-38.9"/>
	<line fill="none" x1="620" y1="53.5" x2="620" y2="-38.9"/>
	<line fill="none" x1="860" y1="7.3" x2="780" y2="-38.9"/>
	<line fill="none" x1="860" y1="99.7" x2="780" y2="53.5"/>
	<line fill="none" x1="780" y1="-38.9" x2="780" y2="-38.9"/>
	<line fill="none" x1="700" y1="7.3" x2="780" y2="-38.9"/>
	<line fill="none" x1="700" y1="99.7" x2="780" y2="53.5"/>
	<line fill="none" x1="780" y1="-38.9" x2="780" y2="-38.9"/>
	<line fill="none" x1="700" y1="7.3" x2="700" y2="99.7"/>
	<line fill="none" x1="780" y1="-38.9" x2="780" y2="-38.9"/>
	<line fill="none" x1="780" y1="-38.9" x2="780" y2="53.5"/>
	<line fill="none" x1="1020" y1="99.7" x2="1020" y2="99.7"/>
	<line fill="none" x1="1020" y1="99.7" x2="940" y2="53.5"/>
	<line fill="none" x1="1020" y1="99.7" x2="1020" y2="99.7"/>
	<line fill="none" x1="940" y1="-38.9" x2="1020" y2="7.3"/>
	<line fill="none" x1="940" y1="-38.9" x2="940" y2="-38.9"/>
	<line fill="none" x1="940" y1="-38.9" x2="860" y2="7.3"/>
	<line fill="none" x1="940" y1="-38.9" x2="940" y2="-38.9"/>
	<line fill="none" x1="940" y1="53.5" x2="860" y2="99.7"/>
	<line fill="none" x1="860" y1="7.3" x2="860" y2="99.7"/>
	<line fill="none" x1="940" y1="-38.9" x2="940" y2="-38.9"/>
	<line fill="none" x1="940" y1="-38.9" x2="940" y2="53.5"/>
	<line fill="none" x1="940" y1="-38.9" x2="940" y2="-38.9"/>
	<line fill="none" x1="460" y1="238.3" x2="540" y2="284.4"/>
	<line fill="none" x1="540" y1="376.8" x2="460" y2="330.6"/>
	<line fill="none" x1="540" y1="376.8" x2="540" y2="376.8"/>
	<line fill="none" x1="460" y1="238.3" x2="460" y2="238.3"/>
	<line fill="none" x1="540" y1="376.8" x2="540" y2="376.8"/>
	<line fill="none" x1="540" y1="376.8" x2="540" y2="376.8"/>
	<line fill="none" x1="460" y1="330.6" x2="380" y2="376.8"/>
	<line fill="none" x1="380" y1="284.4" x2="460" y2="238.3"/>
	<line fill="none" x1="380" y1="376.8" x2="380" y2="376.8"/>
	<line fill="none" x1="460" y1="238.3" x2="460" y2="238.3"/>
	<line fill="none" x1="460" y1="238.3" x2="460" y2="330.6"/>
	<line fill="none" x1="700" y1="376.8" x2="700" y2="376.8"/>
	<line fill="none" x1="700" y1="376.8" x2="620" y2="330.6"/>
	<line fill="none" x1="700" y1="376.8" x2="700" y2="376.8"/>
	<line fill="none" x1="620" y1="238.3" x2="620" y2="238.3"/>
	<line fill="none" x1="700" y1="376.8" x2="700" y2="376.8"/>
	<line fill="none" x1="620" y1="238.3" x2="700" y2="284.4"/>
	<line fill="none" x1="540" y1="376.8" x2="620" y2="330.6"/>
	<line fill="none" x1="540" y1="376.8" x2="540" y2="376.8"/>
	<line fill="none" x1="620" y1="238.3" x2="620" y2="238.3"/>
	<line fill="none" x1="540" y1="284.4" x2="620" y2="238.3"/>
	<line fill="none" x1="540" y1="376.8" x2="540" y2="284.4"/>
	<line fill="none" x1="620" y1="330.6" x2="620" y2="238.3"/>
	<line fill="none" x1="860" y1="376.8" x2="780" y2="330.6"/>
	<line fill="none" x1="780" y1="238.3" x2="780" y2="238.3"/>
	<line fill="none" x1="860" y1="376.8" x2="860" y2="376.8"/>
	<line fill="none" x1="860" y1="376.8" x2="860" y2="376.8"/>
	<line fill="none" x1="780" y1="238.3" x2="860" y2="284.4"/>
	<line fill="none" x1="860" y1="376.8" x2="860" y2="376.8"/>
	<line fill="none" x1="780" y1="330.6" x2="700" y2="376.8"/>
	<line fill="none" x1="700" y1="376.8" x2="700" y2="376.8"/>
	<line fill="none" x1="700" y1="284.4" x2="780" y2="238.3"/>
	<line fill="none" x1="780" y1="238.3" x2="780" y2="238.3"/>
	<line fill="none" x1="700" y1="376.8" x2="700" y2="284.4"/>
	<line fill="none" x1="780" y1="238.3" x2="780" y2="330.6"/>
	<line fill="none" x1="1020" y1="376.8" x2="1020" y2="376.8"/>
	<line fill="none" x1="1020" y1="284.4" x2="940" y2="238.3"/>
	<line fill="none" x1="1020" y1="376.8" x2="940" y2="330.6"/>
	<line fill="none" x1="940" y1="238.3" x2="940" y2="238.3"/>
	<line fill="none" x1="1020" y1="376.8" x2="1020" y2="376.8"/>
	<line fill="none" x1="1020" y1="376.8" x2="1020" y2="376.8"/>
	<line fill="none" x1="860" y1="284.4" x2="940" y2="238.3"/>
	<line fill="none" x1="940" y1="238.3" x2="940" y2="238.3"/>
	<line fill="none" x1="860" y1="376.8" x2="940" y2="330.6"/>
	<line fill="none" x1="860" y1="376.8" x2="860" y2="376.8"/>
	<line fill="none" x1="860" y1="376.8" x2="860" y2="284.4"/>
	<line fill="none" x1="940" y1="330.6" x2="940" y2="238.3"/>
	<line fill="none" x1="540" y1="-177.4" x2="620" y2="-131.2"/>
	<line fill="none" x1="620" y1="-38.9" x2="540" y2="-85.1"/>
	<line fill="none" x1="540" y1="-177.4" x2="540" y2="-177.4"/>
	<line fill="none" x1="620" y1="-38.9" x2="620" y2="-38.9"/>
	<line fill="none" x1="540" y1="-177.4" x2="540" y2="-85.1"/>
	<line fill="none" x1="540" y1="-177.4" x2="540" y2="-177.4"/>
	<line fill="none" x1="540" y1="-177.4" x2="540" y2="-177.4"/>
	<line fill="none" x1="540" y1="-177.4" x2="540" y2="-177.4"/>
	<line fill="none" x1="700" y1="-177.4" x2="620" y2="-131.2"/>
	<line fill="none" x1="700" y1="-177.4" x2="700" y2="-177.4"/>
	<line fill="none" x1="700" y1="-177.4" x2="700" y2="-177.4"/>
	<line fill="none" x1="700" y1="-85.1" x2="620" y2="-38.9"/>
	<line fill="none" x1="620" y1="-38.9" x2="620" y2="-38.9"/>
	<line fill="none" x1="620" y1="-38.9" x2="620" y2="-131.2"/>
	<line fill="none" x1="700" y1="-177.4" x2="780" y2="-131.2"/>
	<line fill="none" x1="780" y1="-38.9" x2="780" y2="-38.9"/>
	<line fill="none" x1="780" y1="-38.9" x2="700" y2="-85.1"/>
	<line fill="none" x1="700" y1="-177.4" x2="700" y2="-177.4"/>
	<line fill="none" x1="700" y1="-177.4" x2="700" y2="-85.1"/>
	<line fill="none" x1="700" y1="-177.4" x2="700" y2="-177.4"/>
	<line fill="none" x1="700" y1="-177.4" x2="700" y2="-177.4"/>
	<line fill="none" x1="860" y1="-177.4" x2="780" y2="-131.2"/>
	<line fill="none" x1="860" y1="-177.4" x2="860" y2="-177.4"/>
	<line fill="none" x1="780" y1="-38.9" x2="860" y2="-85.1"/>
	<line fill="none" x1="860" y1="-177.4" x2="860" y2="-177.4"/>
	<line fill="none" x1="780" y1="-38.9" x2="780" y2="-38.9"/>
	<line fill="none" x1="780" y1="-131.2" x2="780" y2="-38.9"/>
	<line fill="none" x1="860" y1="-177.4" x2="860" y2="-177.4"/>
	<line fill="none" x1="940" y1="-38.9" x2="860" y2="-85.1"/>
	<line fill="none" x1="860" y1="-177.4" x2="940" y2="-131.2"/>
	<line fill="none" x1="940" y1="-38.9" x2="940" y2="-38.9"/>
	<line fill="none" x1="860" y1="-85.1" x2="860" y2="-177.4"/>
	<line fill="none" x1="860" y1="-177.4" x2="860" y2="-177.4"/>
	<line fill="none" x1="860" y1="-177.4" x2="860" y2="-177.4"/>
	<line fill="none" x1="860" y1="-177.4" x2="860" y2="-177.4"/>
	<line fill="none" x1="1020" y1="-177.4" x2="1020" y2="-177.4"/>
	<line fill="none" x1="1020" y1="-85.1" x2="940" y2="-38.9"/>
	<line fill="none" x1="940" y1="-38.9" x2="940" y2="-38.9"/>
	<line fill="none" x1="1020" y1="-177.4" x2="1020" y2="-177.4"/>
	<line fill="none" x1="1020" y1="-177.4" x2="940" y2="-131.2"/>
	<line fill="none" x1="1020" y1="-177.4" x2="1020" y2="-85.1"/>
	<line fill="none" x1="1020" y1="-177.4" x2="1020" y2="-177.4"/>
	<line fill="none" x1="1020" y1="-177.4" x2="1020" y2="-177.4"/>
	<line fill="none" x1="1020" y1="-177.4" x2="1020" y2="-177.4"/>
	<line fill="none" x1="940" y1="-38.9" x2="940" y2="-131.2"/>
	<line fill="none" x1="540" y1="192.1" x2="620" y2="238.3"/>
	<line fill="none" x1="540" y1="99.7" x2="620" y2="145.9"/>
	<line fill="none" x1="620" y1="238.3" x2="620" y2="238.3"/>
	<line fill="none" x1="700" y1="192.1" x2="620" y2="238.3"/>
	<line fill="none" x1="700" y1="99.7" x2="620" y2="145.9"/>
	<line fill="none" x1="620" y1="238.3" x2="620" y2="238.3"/>
	<line fill="none" x1="620" y1="238.3" x2="620" y2="238.3"/>
	<line fill="none" x1="620" y1="145.9" x2="620" y2="238.3"/>
	<line fill="none" x1="780" y1="238.3" x2="700" y2="192.1"/>
	<line fill="none" x1="780" y1="238.3" x2="780" y2="238.3"/>
	<line fill="none" x1="700" y1="99.7" x2="780" y2="145.9"/>
	<line fill="none" x1="700" y1="99.7" x2="700" y2="192.1"/>
	<line fill="none" x1="780" y1="238.3" x2="780" y2="238.3"/>
	<line fill="none" x1="860" y1="192.1" x2="780" y2="238.3"/>
	<line fill="none" x1="860" y1="99.7" x2="780" y2="145.9"/>
	<line fill="none" x1="780" y1="145.9" x2="780" y2="238.3"/>
	<line fill="none" x1="780" y1="238.3" x2="780" y2="238.3"/>
	<line fill="none" x1="940" y1="238.3" x2="940" y2="238.3"/>
	<line fill="none" x1="860" y1="99.7" x2="940" y2="145.9"/>
	<line fill="none" x1="940" y1="238.3" x2="860" y2="192.1"/>
	<line fill="none" x1="860" y1="99.7" x2="860" y2="192.1"/>
	<line fill="none" x1="1020" y1="99.7" x2="1020" y2="99.7"/>
	<line fill="none" x1="1020" y1="99.7" x2="940" y2="145.9"/>
	<line fill="none" x1="1020" y1="99.7" x2="1020" y2="99.7"/>
	<line fill="none" x1="1020" y1="192.1" x2="940" y2="238.3"/>
	<line fill="none" x1="940" y1="238.3" x2="940" y2="238.3"/>
	<line fill="none" x1="940" y1="238.3" x2="940" y2="238.3"/>
	<line fill="none" x1="940" y1="238.3" x2="940" y2="238.3"/>
	<line fill="none" x1="940" y1="145.9" x2="940" y2="238.3"/>
	<line fill="none" x1="380" y1="469.2" x2="460" y2="515.4"/>
	<line fill="none" x1="380" y1="376.8" x2="460" y2="423"/>
	<line fill="none" x1="380" y1="376.8" x2="380" y2="376.8"/>
	<line fill="none" x1="540" y1="376.8" x2="540" y2="376.8"/>
	<line fill="none" x1="540" y1="376.8" x2="460" y2="423"/>
	<line fill="none" x1="540" y1="376.8" x2="540" y2="376.8"/>
	<line fill="none" x1="460" y1="515.4" x2="540" y2="469.2"/>
	<line fill="none" x1="460" y1="515.4" x2="460" y2="423"/>
	<line fill="none" x1="540" y1="376.8" x2="620" y2="423"/>
	<line fill="none" x1="540" y1="376.8" x2="540" y2="376.8"/>
	<line fill="none" x1="620" y1="515.4" x2="540" y2="469.2"/>
	<line fill="none" x1="540" y1="376.8" x2="540" y2="469.2"/>
	<line fill="none" x1="540" y1="376.8" x2="540" y2="376.8"/>
	<line fill="none" x1="540" y1="376.8" x2="540" y2="376.8"/>
	<line fill="none" x1="540" y1="376.8" x2="540" y2="376.8"/>
	<line fill="none" x1="700" y1="376.8" x2="700" y2="376.8"/>
	<line fill="none" x1="700" y1="469.2" x2="620" y2="515.4"/>
	<line fill="none" x1="700" y1="376.8" x2="700" y2="376.8"/>
	<line fill="none" x1="620" y1="423" x2="700" y2="376.8"/>
	<line fill="none" x1="620" y1="515.4" x2="620" y2="423"/>
	<line fill="none" x1="700" y1="376.8" x2="700" y2="376.8"/>
	<line fill="none" x1="700" y1="469.2" x2="780" y2="515.4"/>
	<line fill="none" x1="700" y1="376.8" x2="780" y2="423"/>
	<line fill="none" x1="700" y1="469.2" x2="700" y2="376.8"/>
	<line fill="none" x1="700" y1="376.8" x2="700" y2="376.8"/>
	<line fill="none" x1="700" y1="376.8" x2="700" y2="376.8"/>
	<line fill="none" x1="860" y1="376.8" x2="860" y2="376.8"/>
	<line fill="none" x1="860" y1="376.8" x2="780" y2="423"/>
	<line fill="none" x1="780" y1="515.4" x2="860" y2="469.2"/>
	<line fill="none" x1="860" y1="376.8" x2="860" y2="376.8"/>
	<line fill="none" x1="780" y1="515.4" x2="780" y2="423"/>
	<line fill="none" x1="860" y1="376.8" x2="860" y2="376.8"/>
	<line fill="none" x1="940" y1="515.4" x2="860" y2="469.2"/>
	<line fill="none" x1="860" y1="376.8" x2="940" y2="423"/>
	<line fill="none" x1="860" y1="376.8" x2="860" y2="469.2"/>
	<line fill="none" x1="860" y1="376.8" x2="860" y2="376.8"/>
	<line fill="none" x1="860" y1="376.8" x2="860" y2="376.8"/>
	<line fill="none" x1="860" y1="376.8" x2="860" y2="376.8"/>
	<line fill="none" x1="1020" y1="376.8" x2="1020" y2="376.8"/>
	<line fill="none" x1="940" y1="423" x2="1020" y2="376.8"/>
	<line fill="none" x1="1020" y1="376.8" x2="1020" y2="376.8"/>
	<line fill="none" x1="1020" y1="469.2" x2="940" y2="515.4"/>
	<line fill="none" x1="940" y1="515.4" x2="940" y2="423"/>
	<line fill="none" x1="380" y1="99.7" x2="380" y2="99.7"/>
	<line fill="none" x1="460" y1="238.3" x2="380" y2="192.1"/>
	<line fill="none" x1="460" y1="238.3" x2="460" y2="238.3"/>
	<line fill="none" x1="380" y1="99.7" x2="460" y2="145.9"/>
	<line fill="none" x1="380" y1="99.7" x2="380" y2="99.7"/>
	<line fill="none" x1="460" y1="238.3" x2="460" y2="238.3"/>
	<line fill="none" x1="460" y1="145.9" x2="540" y2="99.7"/>
	<line fill="none" x1="460" y1="238.3" x2="540" y2="192.1"/>
	<line fill="none" x1="540" y1="192.1" x2="540" y2="99.7"/>
	<line fill="none" x1="460" y1="238.3" x2="460" y2="238.3"/>
	<line fill="none" x1="460" y1="238.3" x2="460" y2="238.3"/>
	<line fill="none" x1="460" y1="238.3" x2="460" y2="145.9"/>
	<line fill="none" x1="300" y1="-38.9" x2="380" y2="7.3"/>
	<line fill="none" x1="380" y1="99.7" x2="300" y2="53.5"/>
	<line fill="none" x1="380" y1="99.7" x2="380" y2="99.7"/>
	<line fill="none" x1="380" y1="99.7" x2="380" y2="7.3"/>
	<line fill="none" x1="300" y1="330.6" x2="380" y2="376.8"/>
	<line fill="none" x1="300" y1="238.3" x2="380" y2="284.4"/>
	<line fill="none" x1="380" y1="376.8" x2="380" y2="376.8"/>
	<line fill="none" x1="380" y1="376.8" x2="380" y2="376.8"/>
	<line fill="none" x1="380" y1="376.8" x2="380" y2="284.4"/>
	<line fill="none" x1="380" y1="376.8" x2="380" y2="376.8"/>
	<line fill="none" x1="380" y1="376.8" x2="380" y2="376.8"/>
	<line fill="none" x1="380" y1="376.8" x2="380" y2="376.8"/>
	<line fill="none" x1="1100" y1="-38.9" x2="1020" y2="7.3"/>
	<line fill="none" x1="1100" y1="53.5" x2="1020" y2="99.7"/>
	<line fill="none" x1="1020" y1="99.7" x2="1020" y2="7.3"/>
	<line fill="none" x1="1020" y1="99.7" x2="1020" y2="99.7"/>
	<line fill="none" x1="1100" y1="330.6" x2="1020" y2="376.8"/>
	<line fill="none" x1="1100" y1="238.3" x2="1020" y2="284.4"/>
	<line fill="none" x1="1020" y1="376.8" x2="1020" y2="376.8"/>
	<line fill="none" x1="1020" y1="376.8" x2="1020" y2="376.8"/>
	<line fill="none" x1="1020" y1="284.4" x2="1020" y2="376.8"/>
	<line fill="none" x1="1020" y1="376.8" x2="1020" y2="376.8"/>
	<line fill="none" x1="1020" y1="376.8" x2="1020" y2="376.8"/>
	<line fill="none" x1="1020" y1="376.8" x2="1020" y2="376.8"/>
	<line fill="none" x1="300" y1="145.9" x2="380" y2="99.7"/>
	<line fill="none" x1="300" y1="238.3" x2="380" y2="192.1"/>
	<line fill="none" x1="380" y1="99.7" x2="380" y2="192.1"/>
	<line fill="none" x1="380" y1="99.7" x2="380" y2="99.7"/>
	<line fill="none" x1="380" y1="376.8" x2="380" y2="376.8"/>
	<line fill="none" x1="380" y1="376.8" x2="300" y2="423"/>
	<line fill="none" x1="380" y1="469.2" x2="300" y2="515.4"/>
	<line fill="none" x1="380" y1="469.2" x2="380" y2="376.8"/>
	<line fill="none" x1="1100" y1="238.3" x2="1020" y2="192.1"/>
	<line fill="none" x1="1020" y1="99.7" x2="1100" y2="145.9"/>
	<line fill="none" x1="1020" y1="99.7" x2="1020" y2="192.1"/>
	<line fill="none" x1="1020" y1="99.7" x2="1020" y2="99.7"/>
	<line fill="none" x1="1020" y1="376.8" x2="1020" y2="376.8"/>
	<line fill="none" x1="1020" y1="469.2" x2="1100" y2="515.4"/>
	<line fill="none" x1="1020" y1="376.8" x2="1100" y2="423"/>
	<line fill="none" x1="1020" y1="469.2" x2="1020" y2="376.8"/>
</g>
</svg>
